<?xml version="1.0" encoding="utf-8"?>
<!-- Generator: Adobe Illustrator 17.0.0, SVG Export Plug-In . SVG Version: 6.00 Build 0)  -->
<!DOCTYPE svg PUBLIC "-//W3C//DTD SVG 1.1//EN" "http://www.w3.org/Graphics/SVG/1.1/DTD/svg11.dtd">
<svg version="1.1" id="图层_1" xmlns="http://www.w3.org/2000/svg" xmlns:xlink="http://www.w3.org/1999/xlink" x="0px" y="0px"
	 width="603.72px" height="125.333px" viewBox="40.153 38.427 603.72 125.333"
	 enable-background="new 40.153 38.427 603.72 125.333" xml:space="preserve">
<g>
	<g>
		<rect x="208.673" y="78.773" fill="#FFFFFF" width="11.84" height="77.307"/>
		<rect x="177.046" y="46.027" fill="#FFFFFF" width="96.507" height="11.84"/>
		<rect x="230.059" y="78.773" fill="#FFFFFF" width="11.84" height="77.307"/>
	</g>
	<g>
		<polygon fill="#FFFFFF" points="568.993,156.16 580.939,156.16 580.939,109.6 568.993,96.32 		"/>
		<polygon fill="#FFFFFF" points="631.899,46.027 631.899,132.347 547.393,38.427 547.393,156.16 559.313,156.16 559.313,69.813 
			643.873,163.76 643.873,46.027 		"/>
	</g>
	<g>
		<path fill="#FFFFFF" d="M470.033,45.973c-30.373,0-55.067,24.693-55.067,55.067s24.693,55.067,55.067,55.067
			c30.373,0,55.067-24.693,55.067-55.067C525.099,70.693,500.406,45.973,470.033,45.973z M470.033,144.24
			c-23.813,0-43.2-19.36-43.2-43.2s19.36-43.2,43.2-43.2c23.813,0,43.2,19.36,43.2,43.2
			C513.233,124.853,493.846,144.24,470.033,144.24z"/>
		<path fill="#FFFFFF" d="M470.033,93.12c-4.373,0-7.92,3.547-7.92,7.92s3.547,7.92,7.92,7.92s7.92-3.547,7.92-7.92
			S474.406,93.12,470.033,93.12z"/>
	</g>
	<path fill="#FFFFFF" d="M394.246,79.813c0-18.613-15.04-33.76-33.52-33.76h-62.987v110.133h11.76V58h51.227
		c11.867,0,21.52,9.787,21.52,21.813c0,11.973-9.52,21.707-21.28,21.84l-41.787-0.027v54.56h11.76v-42.613h27.547l22.507,42.587
		h13.68l-23.493-44.267C384.753,107.387,394.246,94.267,394.246,79.813z"/>
</g>
<circle fill="#02BA96" cx="96.434" cy="102.254" r="56.281"/>
<path fill="#FFFFFF" d="M120.424,79.934l-54.81-10.082l28.844,72.57l40.183-48.963L120.424,79.934z M119.55,84.379l8.388,7.969
	l-22.933,4.153L119.55,84.379z M100.023,95.672L75.851,75.626l39.5,7.268L100.023,95.672z M98.293,99.224l-3.934,32.578
	L73.11,78.322L98.293,99.224z M101.936,100.946l25.392-4.599L98.211,131.83L101.936,100.946z"/>
</svg>
